<?xml version="1.0" standalone="no"?>
<!DOCTYPE svg PUBLIC "-//W3C//DTD SVG 20010904//EN"
 "http://www.w3.org/TR/2001/REC-SVG-20010904/DTD/svg10.dtd">
<svg version="1.0" xmlns="http://www.w3.org/2000/svg"
 width="260.000000pt" height="260.000000pt" viewBox="0 0 260.000000 260.000000"
 preserveAspectRatio="xMidYMid meet">
<metadata>
Created by potrace 1.11, written by Peter Selinger 2001-2013
</metadata>
<g transform="translate(0.000000,260.000000) scale(0.100000,-0.100000)"
fill="#000000" stroke="none">
<path d="M1038 2248 c-72 -284 -121 -473 -124 -477 -2 -2 -128 -3 -281 -3
l-278 0 0 -104 0 -104 253 0 c138 0 252 -3 252 -6 0 -3 -27 -112 -61 -242 -63
-246 -67 -262 -68 -274 -1 -5 -118 -8 -261 -8 l-260 0 0 -105 0 -105 113 1
c228 2 358 -1 354 -9 -5 -7 -136 -512 -151 -582 -5 -19 0 -20 134 -20 l139 0
10 35 c5 19 40 155 77 302 37 148 68 269 70 271 3 5 505 4 509 0 5 -4 -142
-585 -150 -599 -4 -5 51 -9 138 -9 l144 0 36 137 c19 76 54 213 78 306 l42
167 41 1 c23 0 132 0 244 1 145 0 202 3 203 11 1 7 2 53 2 102 l2 90 -218 3
c-164 2 -217 5 -217 15 0 6 29 125 64 262 l63 250 226 3 227 2 0 104 0 104
-192 1 c-106 0 -196 0 -200 0 -3 1 9 58 28 129 19 70 36 136 38 147 2 11 22
91 45 177 23 87 41 160 41 163 0 3 -63 5 -140 5 l-139 0 -10 -37 c-5 -21 -31
-119 -56 -218 -26 -99 -57 -219 -69 -268 -13 -48 -26 -90 -29 -93 -8 -8 -496
-9 -503 -1 -5 5 52 241 122 502 13 50 24 96 24 103 0 9 -34 12 -138 12 l-138
0 -36 -142z m606 -740 c-8 -29 -16 -64 -19 -78 -3 -14 -27 -108 -54 -210 l-48
-185 -258 -3 -257 -2 6 27 c4 16 34 135 68 266 l61 237 258 0 257 0 -14 -52z"/>
</g>
</svg>
